# xmcd
#
# Track frame offsets:
#	150
#	21093
#	37200
#	60374
#	85481
#	105424
#	120687
#	135086
#	152432
#	167710
#	191211
#	210183
#	222800
#	236852
#	253462
#	266278
#
# Disc length: 3896 seconds
#
# Revision: 0
# Processed by: cddbd v1.5.2PL0 Copyright (c) Steve Scherf et al.
# Submitted via: audiograbber 1.83.01
#
DISCID=d80f3610
DTITLE=Various Artist - Heroes Of Rock
DYEAR=1900
DGENRE=Rock
TTITLE0=Hawkind - Silver Machine
TTITLE1=Uriah Heep - Free Me
TTITLE2=Guess Who - American Woman
TTITLE3=Free - All Right Now
TTITLE4=Jethro Tull - Locomotive Breath
TTITLE5=Cozy Powell - Dance With The Devil
TTITLE6=Thin Lizzy - The Boys Are Back In Town
TTITLE7=10cc - The Wall Street Shuffle
TTITLE8=Nazareth - This Flight Tonight
TTITLE9=The Alarm - Rain In The Summertime
TTITLE10=Humble Pie - Natural Born Boogie
TTITLE11=Black Sabbath - Paranoid
TTITLE12=Sammy Hagar - Rock 'n' Roll Weekend
TTITLE13=The Allman Brothers Band - The Judgement 
TTITLE14=Girlschool - Race With The Devil
TTITLE15=Deep Purple - My Woman From Tokyo
EXTD=
EXTT0=
EXTT1=
EXTT2=
EXTT3=
EXTT4=
EXTT5=
EXTT6=
EXTT7=
EXTT8=
EXTT9=
EXTT10=
EXTT11=
EXTT12=
EXTT13=
EXTT14=
EXTT15=
PLAYORDER=
